<svg width="12" height="12" viewBox="0 0 12 12" fill="none" xmlns="http://www.w3.org/2000/svg">
<path d="M3.38008 11H8.62008C10.0001 11 10.5501 10.155 10.6151 9.125L10.8751 4.995C10.9451 3.915 10.0851 3 9.00008 3C8.69508 3 8.41508 2.825 8.27508 2.555L7.91508 1.83C7.68508 1.375 7.08508 1 6.57508 1H5.43008C4.91508 1 4.31508 1.375 4.08508 1.83L3.72508 2.555C3.58508 2.825 3.30508 3 3.00008 3C1.91508 3 1.05508 3.915 1.12508 4.995L1.38508 9.125C1.44508 10.155 2.00008 11 3.38008 11Z" stroke="white" stroke-linecap="round" stroke-linejoin="round"/>
<path d="M5.25 4H6.75" stroke="white" stroke-linecap="round" stroke-linejoin="round"/>
<path d="M6 9C6.895 9 7.625 8.27 7.625 7.375C7.625 6.48 6.895 5.75 6 5.75C5.105 5.75 4.375 6.48 4.375 7.375C4.375 8.27 5.105 9 6 9Z" stroke="white" stroke-width="1.5" stroke-linecap="round" stroke-linejoin="round"/>
</svg>
