<svg width="16" height="16" viewBox="0 0 16 16" fill="none" xmlns="http://www.w3.org/2000/svg">
<path d="M10.34 1.88672H5.66002C4.00002 1.88672 3.63335 2.71339 3.42002 3.72672L2.66669 7.33339H13.3334L12.58 3.72672C12.3667 2.71339 12 1.88672 10.34 1.88672Z" stroke="#700F0F" stroke-linecap="round" stroke-linejoin="round"/>
<path d="M14.66 13.2135C14.7333 13.9935 14.1067 14.6668 13.3067 14.6668H12.0533C11.3333 14.6668 11.2333 14.3602 11.1067 13.9802L10.9733 13.5802C10.7867 13.0335 10.6667 12.6668 9.70667 12.6668H6.29334C5.33334 12.6668 5.19334 13.0802 5.02667 13.5802L4.89334 13.9802C4.76667 14.3602 4.66667 14.6668 3.94667 14.6668H2.69334C1.89334 14.6668 1.26667 13.9935 1.34001 13.2135L1.71334 9.1535C1.80667 8.1535 2.00001 7.3335 3.74667 7.3335H12.2533C14 7.3335 14.1933 8.1535 14.2867 9.1535L14.66 13.2135Z" stroke="#700F0F" stroke-linecap="round" stroke-linejoin="round"/>
<path d="M2.66667 5.3335H2" stroke="#700F0F" stroke-linecap="round" stroke-linejoin="round"/>
<path d="M14 5.3335H13.3333" stroke="#700F0F" stroke-linecap="round" stroke-linejoin="round"/>
<path d="M8 2V3.33333" stroke="#700F0F" stroke-linecap="round" stroke-linejoin="round"/>
<path d="M7 3.3335H9" stroke="#700F0F" stroke-linecap="round" stroke-linejoin="round"/>
<path d="M4 10H6" stroke="#700F0F" stroke-linecap="round" stroke-linejoin="round"/>
<path d="M10 10H12" stroke="#700F0F" stroke-linecap="round" stroke-linejoin="round"/>
</svg>
