<svg width="16" height="16" viewBox="0 0 16 16" fill="none" xmlns="http://www.w3.org/2000/svg">
<path d="M6.2656 9.35942H5.8906V9.73442V12.8283H4.03897V9.73442V9.35942H3.66397H3.17176V7.5664C3.17176 7.18968 3.30152 6.87652 3.57141 6.60663C3.8413 6.33674 4.15446 6.20698 4.53118 6.20698H5.39839C5.77511 6.20698 6.08827 6.33674 6.35816 6.60663C6.62805 6.87652 6.75781 7.18968 6.75781 7.5664V9.35942H6.2656ZM5.46927 4.38524C5.33189 4.52262 5.17154 4.58977 4.96478 4.58977C4.75803 4.58977 4.59767 4.52262 4.4603 4.38524C4.32292 4.24787 4.25577 4.08751 4.25577 3.88076C4.25577 3.67401 4.32292 3.51365 4.4603 3.37628C4.59767 3.2389 4.75803 3.17175 4.96478 3.17175C5.17154 3.17175 5.33189 3.2389 5.46927 3.37628C5.60664 3.51365 5.6738 3.67401 5.6738 3.88076C5.6738 4.08751 5.60664 4.24787 5.46927 4.38524ZM9.54383 6.75779L11.0353 4.3715L12.5267 6.75779H9.54383ZM9.54383 9.24221H12.5267L11.0353 11.6285L9.54383 9.24221Z" stroke="#700F0F" stroke-width="0.75"/>
</svg>
