<svg width="16" height="16" viewBox="0 0 16 16" fill="none" xmlns="http://www.w3.org/2000/svg">
<path d="M8.93986 13.8598L7.99988 14.4665C7.12654 15.0065 5.91321 14.3998 5.91321 13.3198V9.75317C5.91321 9.27984 5.64654 8.67318 5.37321 8.33984L2.81319 5.6465C2.47319 5.3065 2.20654 4.70651 2.20654 4.29985V2.75317C2.20654 1.94651 2.81322 1.33984 3.55322 1.33984H12.4465C13.1865 1.33984 13.7932 1.9465 13.7932 2.6865V4.1665C13.7932 4.7065 13.4532 5.37984 13.1199 5.71318" stroke="white" stroke-miterlimit="10" stroke-linecap="round" stroke-linejoin="round"/>
<path d="M11.3866 7.92645L9.0266 10.2864C8.93326 10.3798 8.8466 10.5531 8.8266 10.6798L8.69994 11.5798C8.65327 11.9064 8.87994 12.1331 9.20661 12.0864L10.1066 11.9598C10.2333 11.9398 10.4133 11.8531 10.4999 11.7598L12.8599 9.39978C13.2666 8.99311 13.4599 8.51978 12.8599 7.91978C12.2666 7.32645 11.7933 7.51979 11.3866 7.92645Z" stroke="white" stroke-miterlimit="10" stroke-linecap="round" stroke-linejoin="round"/>
<path d="M11.0532 8.25977C11.2532 8.97977 11.8132 9.53975 12.5332 9.73975" stroke="white" stroke-miterlimit="10" stroke-linecap="round" stroke-linejoin="round"/>
</svg>
