<svg width="56" height="56" viewBox="0 0 56 56" fill="none" xmlns="http://www.w3.org/2000/svg">
<path d="M14 23.3335H21" stroke="#505050" stroke-width="2" stroke-linecap="round" stroke-linejoin="round"/>
<path d="M15.7734 51.3334H40.2268C46.6668 51.3334 49.2334 47.3901 49.5368 42.5834L50.7501 23.3101C50.8901 21.1401 50.2134 19.1101 49.0234 17.5234" stroke="#505050" stroke-width="2" stroke-linecap="round" stroke-linejoin="round"/>
<path d="M42.0001 13.9998C40.5767 13.9998 39.2701 13.1832 38.6167 11.9232L36.9367 8.53984C35.8634 6.4165 33.0634 4.6665 30.6834 4.6665H25.3401C22.9367 4.6665 20.1367 6.4165 19.0634 8.53984L17.3834 11.9232C16.7301 13.1832 15.4234 13.9998 14.0001 13.9998C8.93673 13.9998 4.9234 18.2698 5.25007 23.3098L6.4634 42.5832C6.58007 44.4965 7.07007 46.2932 8.02673 47.7398" stroke="#505050" stroke-width="2" stroke-linecap="round" stroke-linejoin="round"/>
<path d="M23.3333 40.3899C24.6166 41.3932 26.2499 41.9999 27.9999 41.9999C32.1766 41.9999 35.5833 38.5932 35.5833 34.4165C35.5833 32.9232 35.1633 31.5465 34.4166 30.3799" stroke="#505050" stroke-width="2" stroke-linecap="round" stroke-linejoin="round"/>
<path d="M51.3334 4.6665L4.66675 51.3332" stroke="#505050" stroke-width="2" stroke-linecap="round" stroke-linejoin="round"/>
</svg>
