<svg width="16" height="16" viewBox="0 0 16 16" fill="none" xmlns="http://www.w3.org/2000/svg">
<path d="M12.6666 1.68685L3.33325 1.68685C1.99992 1.68685 1.33325 2.35352 1.33325 3.68685L1.33325 6.35352C1.33325 7.68685 1.99992 8.35352 3.33325 8.35352L12.6666 8.35352C13.9999 8.35352 14.6666 7.68685 14.6666 6.35352V3.68685C14.6666 2.35352 13.9999 1.68685 12.6666 1.68685Z" stroke="#700F0F" stroke-linecap="round"/>
<path d="M4 8.35352V5.02018" stroke="#700F0F" stroke-linecap="round"/>
<path d="M12 8.35352V5.68685" stroke="#700F0F" stroke-linecap="round"/>
<path d="M9.30005 8.35352L9.33338 5.02018" stroke="#700F0F" stroke-linecap="round"/>
<path d="M6.66675 8.35352V6.35352" stroke="#700F0F" stroke-linecap="round"/>
<path d="M1.33325 12.3401C1.33325 13.4268 2.21992 14.3135 3.29992 14.3135L11.9399 14.3135C12.2399 14.3135 12.6933 14.1868 12.9533 14.0335L13.8599 13.4868C14.9066 12.8601 14.9066 11.8268 13.8599 11.2001L12.9533 10.6535C12.6933 10.5001 12.2399 10.3735 11.9399 10.3735L3.29992 10.3735C2.21992 10.3735 1.33325 11.2601 1.33325 12.3401Z" stroke="#700F0F" stroke-linecap="round"/>
<path d="M4.66675 10.3735L4.66675 14.3135" stroke="#700F0F" stroke-linecap="round"/>
</svg>
