<svg width="16" height="16" viewBox="0 0 16 16" fill="none" xmlns="http://www.w3.org/2000/svg">
<path d="M1.33337 14.6665H14.6667" stroke="#700F0F" stroke-miterlimit="10" stroke-linecap="round" stroke-linejoin="round"/>
<path d="M11.3333 1.3335H4.66667C2.66667 1.3335 2 2.52683 2 4.00016V14.6668H14V4.00016C14 2.52683 13.3333 1.3335 11.3333 1.3335Z" stroke="#700F0F" stroke-miterlimit="10" stroke-linecap="round" stroke-linejoin="round"/>
<path d="M9.37328 9.3335H6.61994C6.27994 9.3335 5.99329 10.2802 5.99329 10.6268V14.6668H9.99329V10.6268C9.99995 10.2802 9.71995 9.3335 9.37328 9.3335Z" stroke="#700F0F" stroke-miterlimit="10" stroke-linecap="round" stroke-linejoin="round"/>
<path d="M7.22729 5.76953L7.80151 2.73438H8.67749L7.7312 7H6.84644L6.1521 4.14648L5.45776 7H4.573L3.62671 2.73438H4.50269L5.07983 5.76367L5.78296 2.73438H6.5271L7.22729 5.76953ZM12.5037 5.5791C12.4705 6.03809 12.3005 6.39941 11.9939 6.66309C11.6892 6.92676 11.2869 7.05859 10.7869 7.05859C10.24 7.05859 9.80933 6.875 9.49487 6.50781C9.18237 6.13867 9.02612 5.63281 9.02612 4.99023V4.72949C9.02612 4.31934 9.09839 3.95801 9.24292 3.64551C9.38745 3.33301 9.59351 3.09375 9.86108 2.92773C10.1306 2.75977 10.4431 2.67578 10.7986 2.67578C11.2908 2.67578 11.6873 2.80762 11.988 3.07129C12.2888 3.33496 12.4626 3.70508 12.5095 4.18164H11.6306C11.6091 3.90625 11.532 3.70703 11.3992 3.58398C11.2683 3.45898 11.0681 3.39648 10.7986 3.39648C10.5056 3.39648 10.2859 3.50195 10.1394 3.71289C9.99487 3.92188 9.92065 4.24707 9.91675 4.68848V5.01074C9.91675 5.47168 9.98608 5.80859 10.1248 6.02148C10.2654 6.23438 10.4861 6.34082 10.7869 6.34082C11.0583 6.34082 11.2605 6.2793 11.3933 6.15625C11.5281 6.03125 11.6052 5.83887 11.6248 5.5791H12.5037Z" fill="#700F0F"/>
</svg>
